<svg width="24" height="24" viewBox="0 0 24 24" fill="none" xmlns="http://www.w3.org/2000/svg">
  <path d="M17.05 12.536C17.017 9.708 19.404 8.443 19.525 8.373C18.204 6.425 16.144 6.175 15.411 6.155C13.697 5.977 12.052 7.164 11.182 7.164C10.293 7.164 8.936 6.175 7.5 6.204C5.652 6.233 3.946 7.281 3.01 8.9C1.072 12.196 2.57 17.052 4.422 19.821C5.354 21.174 6.446 22.698 7.891 22.64C9.307 22.577 9.829 21.727 11.553 21.727C13.258 21.727 13.749 22.64 15.235 22.601C16.76 22.577 17.709 21.213 18.612 19.846C19.695 18.278 20.138 16.739 20.157 16.661C20.118 16.647 17.088 15.483 17.05 12.536Z" fill="white"/>
  <path d="M14.964 4.587C15.728 3.647 16.241 2.345 16.105 1.029C14.993 1.073 13.622 1.776 12.829 2.697C12.125 3.51 11.504 4.851 11.659 6.126C12.897 6.214 14.172 5.518 14.964 4.587Z" fill="white"/>
</svg>